# xmcd
#
# Track frame offsets:
#	150
#	12303
#	25955
#	38557
#	48910
#	64363
#	77682
#	93058
#	107461
#	121192
#
# Disc length: 1787 seconds
#
# Revision: 1
# Processed by: cddbd v1.5.2PL0 Copyright (c) Steve Scherf et al.
# Submitted via: audiograbber 1.83.01
#
DISCID=6d06f90a
DTITLE=Carleen Still - Long Time Coming
DYEAR=2008
DGENRE=Country
TTITLE0=Blue Kentucky Girl
TTITLE1=Coal Miners Daughter
TTITLE2=What Part Of No
TTITLE3=You Ain't Woman Enough
TTITLE4=Long Time Coming
TTITLE5=San Antonio Stroll
TTITLE6=Harper Valley PTA
TTITLE7=Every Little Thing
TTITLE8=I'll Do It All Over Again
TTITLE9=Except For Monday
EXTD=
EXTT0=
EXTT1=
EXTT2=
EXTT3=
EXTT4=
EXTT5=
EXTT6=
EXTT7=
EXTT8=
EXTT9=
PLAYORDER=
